<svg height="512pt" viewBox="0 0 512 512" width="512pt" xmlns="http://www.w3.org/2000/svg"><path d="m512 256c0 141.386719-114.613281 256-256 256s-256-114.613281-256-256 114.613281-256 256-256 256 114.613281 256 256zm0 0" fill="#0095ff"/><path d="m159.226562 414.339844 97.652344 97.648437c140.980469-.472656 255.121094-114.898437 255.121094-255.988281 0-.5-.015625-.996094-.019531-1.496094l-174.839844-174.84375zm0 0" fill="#0050c3"/><path d="m352.78125 205.574219c-.46875-53.050781-43.609375-95.914063-96.769531-95.914063-53.164063 0-96.304688 42.863282-96.773438 95.914063h-.011719v208.765625h193.566407v-208.765625zm0 0" fill="#00ffe7"/><path d="m184.351562 243h143.316407v80h-143.316407zm0 0" fill="#fff5f5"/><path d="m184 103h144v38.785156h-144zm0 0" fill="#c5d3dd"/><path d="m352.78125 205.574219c-.46875-53.050781-43.609375-95.914063-96.769531-95.914063v304.679688h96.78125v-208.765625zm0 0" fill="#00aba2"/><path d="m174.878906 79.660156h162.261719v30h-162.261719zm0 0" fill="#fff5f5"/><path d="m256 103h72v38.785156h-72zm0 0" fill="#8d9ca8"/><path d="m256.011719 243h71.65625v80h-71.65625zm0 0" fill="#a2d8f4"/><path d="m256.003906 79.660156h81.136719v30h-81.136719zm0 0" fill="#c5d3dd"/></svg>