<?xml version="1.0" encoding="iso-8859-1"?>
<!-- Generator: Adobe Illustrator 19.0.0, SVG Export Plug-In . SVG Version: 6.00 Build 0)  -->
<svg version="1.1" id="Capa_1" xmlns="http://www.w3.org/2000/svg" xmlns:xlink="http://www.w3.org/1999/xlink" x="0px" y="0px"
	 viewBox="0 0 512 512" style="enable-background:new 0 0 512 512;" xml:space="preserve">
<circle style="fill:#E15050;" cx="256" cy="256" r="256"/>
<path style="fill:#A13939;" d="M512,256c0-7.555-0.347-15.028-0.988-22.417l-111.72-110.916L116.456,394.711l116.22,116.221
	C240.36,511.625,248.136,512,256,512C397.385,512,512,397.385,512,256z"/>
<path style="fill:#FFFFFF;" d="M162.735,295.775l2.983,19.033l-49.262,49.262c-8.461,8.461-8.461,22.18,0,30.641l0,0
	c8.461,8.461,22.18,8.461,30.641,0l49.262-49.262l19.033,2.983c10.575,1.658,21.306-1.838,28.876-9.408L406.253,177.04
	c13.083-13.083,13.083-34.294,0-47.376l-24.749-24.749c-13.083-13.083-34.294-13.083-47.376,0L172.142,266.9
	C164.573,274.469,161.077,285.2,162.735,295.775z"/>
<path style="fill:#E0E0E0;" d="M406.252,129.665l-12.923-12.923L115.936,394.136c0.177,0.189,0.335,0.391,0.52,0.575
	c8.461,8.461,22.18,8.461,30.641,0l49.262-49.262l19.033,2.983c10.575,1.658,21.306-1.838,28.876-9.408L406.253,177.04
	C419.335,163.959,419.335,142.748,406.252,129.665z"/>
<rect x="217.02" y="201.753" transform="matrix(0.7071 -0.7071 0.7071 0.7071 -72.5362 268.2842)" style="fill:#FFC855;" width="141.119" height="39.896"/>
<rect x="285.132" y="158.402" transform="matrix(0.7071 0.7071 -0.7071 0.7071 248.2531 -141.4127)" style="fill:#F29F42;" width="19.39" height="141.119"/>
<rect x="205.342" y="242.834" transform="matrix(0.7071 -0.7071 0.7071 0.7071 -144.1141 239.7457)" style="fill:#7AE5FE;" width="24" height="101.999"/>
<rect x="209.201" y="299.587" transform="matrix(0.7071 0.7071 -0.7071 0.7071 289.1811 -74.9704)" style="fill:#00BED2;" width="51.775" height="24"/>
<rect x="347.702" y="100.465" transform="matrix(0.7071 -0.7071 0.7071 0.7071 -1.7473 298.7104)" style="fill:#7AE5FE;" width="24" height="101.999"/>
<rect x="351.567" y="157.234" transform="matrix(0.7071 0.7071 -0.7071 0.7071 230.2205 -217.3335)" style="fill:#00BED2;" width="51.776" height="24"/>
<g>
</g>
<g>
</g>
<g>
</g>
<g>
</g>
<g>
</g>
<g>
</g>
<g>
</g>
<g>
</g>
<g>
</g>
<g>
</g>
<g>
</g>
<g>
</g>
<g>
</g>
<g>
</g>
<g>
</g>
</svg>
